<?xml version="1.0" encoding="utf-8"?>
<!-- Generator: Adobe Illustrator 27.0.0, SVG Export Plug-In . SVG Version: 6.00 Build 0)  -->
<svg version="1.1" id="Layer_1" xmlns="http://www.w3.org/2000/svg" xmlns:xlink="http://www.w3.org/1999/xlink" x="0px" y="0px"
	 viewBox="0 0 86 75.5" style="enable-background:new 0 0 86 75.5;" xml:space="preserve">
<path d="M5,68.5V40.8c0-5,0.5-9.7,1.6-14.1c1.1-4.4,2.8-8.3,5-11.6c2.2-3.3,5.1-6,8.5-8c3.4-2,7.5-3,12.4-3v12.5
	c-2.8,0-5.2,0.7-7,2.1c-1.8,1.4-3.3,3.3-4.5,5.6c-1.2,2.3-2,5-2.4,7.9C18.2,35,18,37.9,18,40.8h14.8v27.8H5z M50.8,68.5V40.8
	c0-5,0.5-9.7,1.6-14.1c1.1-4.4,2.8-8.3,5-11.6c2.2-3.3,5.1-6,8.5-8c3.4-2,7.5-3,12.4-3v12.5c-2.8,0-5.2,0.7-7,2.1
	c-1.8,1.4-3.3,3.3-4.5,5.6c-1.2,2.3-2,5-2.4,7.9c-0.4,2.9-0.6,5.8-0.6,8.6h14.8v27.8H50.8z"/>
</svg>
