<?xml version="1.0" encoding="utf-8"?>
<!-- Generator: Adobe Illustrator 27.0.0, SVG Export Plug-In . SVG Version: 6.00 Build 0)  -->
<svg version="1.1" id="Layer_1" xmlns="http://www.w3.org/2000/svg" xmlns:xlink="http://www.w3.org/1999/xlink" x="0px" y="0px"
	 viewBox="0 0 82 75" style="enable-background:new 0 0 82 75;" xml:space="preserve">
<path d="M32,5.3v27.8c0,5-0.5,9.7-1.6,14.1s-2.8,8.3-5,11.6s-5.1,6-8.5,8s-7.5,3-12.4,3V57.3c2.8,0,5.2-0.7,7-2.1
	c1.8-1.4,3.3-3.3,4.5-5.6s2-5,2.4-7.9s0.6-5.8,0.6-8.6H4.3V5.3H32z M77.8,5.3v27.8c0,5-0.5,9.7-1.6,14.1s-2.8,8.3-5,11.6
	s-5.1,6-8.5,8s-7.5,3-12.4,3V57.3c2.8,0,5.2-0.7,7-2.1c1.8-1.4,3.3-3.3,4.5-5.6s2-5,2.4-7.9s0.6-5.8,0.6-8.6H50.1V5.3H77.8z"/>
</svg>
